# xmcd
#
# Track frame offsets: 
#        150
#        19077
#        49322
#        81900
#        108360
#        128827
#        148347
#
# Disc length: 2234 seconds
#
# Revision: 0
# Processed by: cddbd v1.5.2PL0 Copyright (c) Steve Scherf et al.
# Submitted via: ExactAudioCopy v0.99pb1
#
DISCID=6008b807
DTITLE=Ronnie jones - Fox on the run
DYEAR=1995
DGENRE=Disco
TTITLE0=Dancin' In The Disco
TTITLE1=Shape Up
TTITLE2=Fox On The Run
TTITLE3=Never Be The Same
TTITLE4=Brother Louie
TTITLE5=Hot Night 
TTITLE6=Nightingale
EXTD=
EXTT0=
EXTT1=
EXTT2=
EXTT3=
EXTT4=
EXTT5=
EXTT6=
PLAYORDER=
